<?xml version="1.0" encoding="UTF-8"?>
<svg xmlns="http://www.w3.org/2000/svg" xmlns:xlink="http://www.w3.org/1999/xlink" width="100px" height="100px" viewBox="0 0 100 100" version="1.1">
<g id="surface1">
<path style=" stroke:none;fill-rule:evenodd;fill:rgb(0%,0%,0%);fill-opacity:1;" d="M 74.726562 37.5 L 75.039062 37.5 C 80.003906 37.5 84.761719 39.476562 88.269531 42.992188 C 95.578125 50.320312 95.578125 62.179688 88.269531 69.507812 C 84.761719 73.023438 80.003906 75 75.039062 75 L 62.570312 75 L 62.570312 68.75 L 75.039062 68.75 C 81.722656 68.449219 86.992188 62.941406 86.992188 56.25 C 86.992188 49.558594 81.722656 44.050781 75.039062 43.75 L 69.324219 43.75 L 68.554688 38.394531 C 67.59375 31.5 62.164062 26.082031 55.269531 25.132812 C 48.367188 24.1875 41.683594 27.972656 38.9375 34.375 L 36.855469 39.136719 L 31.800781 37.957031 C 30.644531 37.667969 29.460938 37.515625 28.269531 37.5 C 24.132812 37.5 20.164062 39.144531 17.242188 42.074219 C 12.796875 46.546875 11.46875 53.253906 13.878906 59.082031 C 16.289062 64.910156 21.960938 68.722656 28.269531 68.75 L 43.855469 68.75 L 43.855469 75 L 28.269531 75 C 22.007812 75.054688 16.023438 72.414062 11.84375 67.75 C 5.433594 60.609375 4.417969 50.128906 9.34375 41.894531 C 12.558594 36.515625 17.925781 32.777344 24.082031 31.625 C 27.117188 31.0625 30.25 31.144531 33.257812 31.882812 C 37.148438 22.96875 46.472656 17.714844 56.113281 19.007812 C 65.757812 20.3125 73.359375 27.863281 74.726562 37.5 Z M 64.332031 61.582031 L 56.117188 53.375 L 56.117188 87.351562 L 49.90625 87.351562 L 49.90625 53.601562 L 41.917969 61.585938 L 37.5 57.164062 L 50.914062 43.75 L 55.335938 43.75 L 68.75 57.164062 Z M 64.332031 61.582031 "/>
</g>
</svg>
